<?xml version="1.0" encoding="iso-8859-1"?>
<!-- Uploaded to: SVG Repo, www.svgrepo.com, Generator: SVG Repo Mixer Tools -->
<svg version="1.1" id="Layer_1" xmlns="http://www.w3.org/2000/svg" xmlns:xlink="http://www.w3.org/1999/xlink" 
	 viewBox="0 0 512 512" xml:space="preserve">
<g>
	<path style="fill:#C7E7EB;" d="M256,8.17c-5.568,0-11.027,0.466-16.34,1.357l77.516,68.276l31.467-3.74
		C335.335,35.708,298.886,8.17,256,8.17z"/>
	<path style="fill:#C7E7EB;" d="M373.106,73.532c-5.628,0-11.079,0.733-16.287,2.074l-16.394,128.649h32.681
		c36.098,0,65.362-29.264,65.362-65.362S409.205,73.532,373.106,73.532z"/>
</g>
<path style="fill:#FFFFFF;" d="M405.787,138.894c0-30.437-20.805-56.013-48.968-63.288c-2.374,0.611-4.701,1.337-6.962,2.197
	c-0.38-1.257-0.784-2.504-1.214-3.74c-2.694-0.339-5.433-0.533-8.217-0.533c-8.192,0-16.024,1.521-23.25,4.272
	c-10.649-35.225-40.58-62.077-77.517-68.276c-36.937,6.198-66.868,33.051-77.516,68.276c-7.226-2.751-15.058-4.271-23.25-4.271
	c-36.098,0-65.362,29.264-65.362,65.362s29.264,65.362,65.362,65.362h201.532C376.524,204.255,405.787,174.992,405.787,138.894z"/>
<path style="fill:#B7D9DD;" d="M256,119.83l-10.894,16.34L256,152.511c28.578,0,51.745,23.167,51.745,51.745s0,117.106,0,117.106
	h32.681c0,0,0-70.48,0-117.106S302.627,119.83,256,119.83z"/>
<path style="fill:#C7E7EB;" d="M171.574,204.255c0,46.627,0,117.106,0,117.106h32.681c0,0,0-88.529,0-117.106
	s23.166-51.745,51.745-51.745V119.83C209.373,119.83,171.574,157.628,171.574,204.255z"/>
<polygon style="fill:#88ACB5;" points="340.426,288.681 307.745,396.255 340.426,503.83 373.106,503.83 373.106,288.681 "/>
<rect x="138.894" y="288.681" style="fill:#A7CBCF;" width="201.532" height="215.149"/>
<circle style="fill:#2F5E88;" cx="256" cy="379.915" r="16.34"/>
<circle cx="212.426" cy="462.979" r="8.17"/>
<circle cx="179.745" cy="430.298" r="8.17"/>
<path d="M256,355.404c-13.516,0-24.511,10.996-24.511,24.511c0,10.651,6.831,19.733,16.34,23.105v25.916
	c0,4.513,3.658,8.17,8.17,8.17s8.17-3.657,8.17-8.17V403.02c9.509-3.373,16.34-12.455,16.34-23.105
	C280.511,366.4,269.516,355.404,256,355.404z M256,388.085c-4.506,0-8.17-3.665-8.17-8.17s3.665-8.17,8.17-8.17
	s8.17,3.665,8.17,8.17S260.506,388.085,256,388.085z"/>
<path d="M373.106,212.426c40.546,0,73.532-32.986,73.532-73.532s-32.986-73.532-73.532-73.532c-6.157,0-12.229,0.759-18.137,2.266
	c-7.138-18.216-19.388-34.436-35.089-46.275C301.352,7.384,279.263,0,256,0c-23.263,0-45.352,7.384-63.88,21.354
	c-15.701,11.838-27.953,28.059-35.089,46.275c-5.908-1.508-11.98-2.267-18.137-2.267c-40.546,0-73.532,32.986-73.532,73.532
	s32.986,73.532,73.532,73.532c4.512,0,8.17-3.657,8.17-8.17s-3.658-8.17-8.17-8.17c-31.536,0-57.191-25.657-57.191-57.191
	s25.656-57.191,57.191-57.191c6.987,0,13.832,1.257,20.342,3.738c2.117,0.805,4.475,0.697,6.511-0.302
	c2.035-1,3.562-2.799,4.218-4.97C181.324,42.588,216.703,16.34,256,16.34s74.676,26.247,86.036,63.828
	c0.656,2.17,2.183,3.97,4.218,4.97s4.395,1.109,6.511,0.302c6.51-2.48,13.354-3.738,20.342-3.738
	c31.536,0,57.191,25.657,57.191,57.191s-25.656,57.191-57.191,57.191h-24.892c-4.153-47.242-43.912-84.426-92.214-84.426
	c-51.057,0-92.596,41.538-92.596,92.596v76.255h-24.511c-4.512,0-8.17,3.657-8.17,8.17V503.83c0,4.513,3.658,8.17,8.17,8.17h234.213
	c4.512,0,8.17-3.657,8.17-8.17V288.681c0-4.513-3.658-8.17-8.17-8.17h-24.511v-68.085H373.106z M364.936,495.66H147.064V296.851
	h217.872V495.66z M212.426,212.426h62.638c4.512,0,8.17-3.657,8.17-8.17s-3.658-8.17-8.17-8.17h-61.859
	c3.837-20.134,21.561-35.404,42.796-35.404c24.027,0,43.574,19.548,43.574,43.574v76.255h-87.149V212.426z M315.915,280.511v-76.255
	c0-33.037-26.878-59.915-59.915-59.915s-59.915,26.878-59.915,59.915v76.255h-16.34v-76.255C179.745,162.208,213.953,128,256,128
	s76.255,34.208,76.255,76.255v76.255H315.915z"/>
</svg>