<!DOCTYPE svg PUBLIC "-//W3C//DTD SVG 1.1//EN" "http://www.w3.org/Graphics/SVG/1.1/DTD/svg11.dtd">
<!-- Uploaded to: SVG Repo, www.svgrepo.com, Transformed by: SVG Repo Mixer Tools -->
<svg width="160px" height="160px" viewBox="-5 -5 30.00 30.00" xmlns="http://www.w3.org/2000/svg" fill="#49416D">
<g id="SVGRepo_bgCarrier" stroke-width="0" transform="translate(0,0), scale(1)">
<path transform="translate(-5, -5), scale(0.9375)" d="M16,29.49796832973758C18.53983524517747,29.801278734026425,21.44514844024512,30.523970382249615,23.529034512117505,29.040670306927076C25.62559415788946,27.54834924270616,25.118149474013645,24.234606327715113,26.470477376632637,22.045132931942742C27.881392759743015,19.76080404319948,31.769116065159388,18.678511789698995,31.583602500458557,16C31.393012200110558,13.248188469087701,27.29587847126054,12.644597627303295,25.665302998409057,10.419734712069236C24.28096181767361,8.530849832877779,24.51651783234031,5.7684663639975025,22.866840082531176,4.106284089605547C21.03375486696511,2.2593041245084864,18.59282257622056,0.9020930751345027,16.000000000000004,0.681168908874195C13.334497927833871,0.45405200995517936,10.541922344781618,1.2430860300683904,8.422593476871654,2.8755469123378585C6.386907768031145,4.4435797639614805,5.669041783922412,7.0857594026923465,4.632701444886756,9.437087119246517C3.694569165193351,11.56559292756993,2.2431737685909825,13.707683208396135,2.638031815489134,15.999999999999998C3.0255127232789145,18.249489400887224,5.516126848205148,19.41746934015479,6.6891479822559035,21.375622918829315C7.836837630689263,23.29149001367592,7.759267718330998,25.89027564258253,9.442221844568842,27.358404949972062C11.204945602850412,28.896121498521207,13.677322843497464,29.22059122478209,16,29.49796832973758" fill="#A882DD" strokewidth="0"/>
</g>
<g id="SVGRepo_tracerCarrier" stroke-linecap="round" stroke-linejoin="round"/>
<g id="SVGRepo_iconCarrier"> <rect x="0" fill="none" width="20" height="20"/> <g> <path d="M10 9.6c-.6 0-1 .4-1 1 0 .4.3.7.6.8l-.3 1.4h1.3l-.3-1.4c.4-.1.6-.4.6-.8.1-.6-.3-1-.9-1zm.1-4.3c-.7 0-1.4.5-1.4 1.2V8h2.7V6.5c-.1-.7-.6-1.2-1.3-1.2zM10 2L3 5v3c.1 4.4 2.9 8.3 7 9.9 4.1-1.6 6.9-5.5 7-9.9V5l-7-3zm4 11c0 .6-.4 1-1 1H7c-.6 0-1-.4-1-1V9c0-.6.4-1 1-1h.3V6.5C7.4 5.1 8.6 4 10 4c1.4 0 2.6 1.1 2.7 2.5V8h.3c.6 0 1 .4 1 1v4z"/> </g> </g>
</svg>