<!DOCTYPE svg PUBLIC "-//W3C//DTD SVG 1.1//EN" "http://www.w3.org/Graphics/SVG/1.1/DTD/svg11.dtd">
<!-- Uploaded to: SVG Repo, www.svgrepo.com, Transformed by: SVG Repo Mixer Tools -->
<svg height="800px" width="800px" version="1.1" id="_x32_" xmlns="http://www.w3.org/2000/svg" xmlns:xlink="http://www.w3.org/1999/xlink" viewBox="-51.2 -51.2 614.40 614.40" xml:space="preserve" fill="#49416D">
<g id="SVGRepo_bgCarrier" stroke-width="0">
<path transform="translate(-51.2, -51.2), scale(19.2)" d="M16,28.922750930700985C18.63033392342492,29.108338664873212,21.28854884979572,30.361183551969397,23.758722188749484,29.438501032726112C26.325378778962566,28.479779176512878,28.539660819336813,26.376786191814087,29.59031063749537,23.84636950492859C30.611161597712332,21.387721285597486,29.804409993795463,18.621071169277116,29.338498333735124,16C28.9361185085064,13.736338775318071,28.27085076769351,11.568984942159307,27.060461276942107,9.614239704396045C25.875459276821427,7.700494555272316,24.346106456787048,6.043384566895079,22.435959103384192,4.85259183750315C20.484762813253155,3.6362090533344986,18.290434230302395,2.5174525309107767,16,2.7191083686692377C13.756432736535071,2.916637915728856,12.24396442674874,5.014409566349902,10.186688846775468,5.931049722408277C7.827039113408368,6.982415772193803,4.66529263273118,6.515288402918005,3.0165651866440086,8.50401041550295C1.374308449532877,10.484927353084007,1.5037615957977906,13.448811921862838,1.8391397318669718,15.999999999999998C2.1532594084102814,18.389477093820705,3.6614136282260494,20.340920313852035,4.848373591718081,22.438394508723693C6.045555996771631,24.553932756337947,6.747286510636706,27.164609821423298,8.848653494247362,28.386495490493708C10.950985056822248,29.608942035042922,13.574123424571384,28.751589036385656,16,28.922750930700985" fill="#A882DD" strokewidth="0"/>
</g>
<g id="SVGRepo_tracerCarrier" stroke-linecap="round" stroke-linejoin="round"/>
<g id="SVGRepo_iconCarrier"> <style type="text/css"> .st0{fill:#49416D;} </style> <g> <path class="st0" d="M259.993,460.958c14.498,14.498,75.487-23.002,89.985-37.492l59.598-59.606l-52.494-52.485l-59.597,59.597 C282.996,385.462,245.504,446.46,259.993,460.958z"/> <path class="st0" d="M493.251,227.7c-14.498-14.49-37.996-14.49-52.485,0l-71.68,71.678l52.494,52.486l71.671-71.68 C507.741,265.695,507.741,242.198,493.251,227.7z M399.586,308.882l-9.008-8.999l50.18-50.18l8.991,8.99L399.586,308.882z"/> <path class="st0" d="M374.714,448.193c-14.071,14.055-67.572,51.008-104.791,51.008c-0.008,0,0,0-0.008,0 c-17.47,0-28.484-7.351-34.648-13.516c-44.758-44.775,36.604-138.56,37.492-139.439l4.123-4.124 c-3.944-4.354-5.644-10.348-5.644-22.302c0-8.836,0-25.256,0-40.403c11.364-12.619,15.497-11.048,25.103-60.596 c19.433,0,18.178-25.248,27.34-47.644c7.479-18.238,1.212-25.632-5.072-28.655c5.14-66.463,5.14-112.236-70.296-126.435 c-27.349-23.438-68.606-15.48-88.158-11.57c-19.536,3.911-37.159,0-37.159,0l3.355,31.49 C97.74,70.339,112.05,116.112,107.44,142.923c-5.994,3.27-11.407,10.809-4.269,28.254c9.17,22.396,7.906,47.644,27.339,47.644 c9.614,49.548,13.747,47.976,25.111,60.596c0,15.148,0,31.567,0,40.403c0,25.248-8.58,25.684-28.134,36.612 c-47.14,26.35-108.572,41.659-119.571,124.01C5.902,495.504,92.378,511.948,213.434,512 c121.04-0.052,207.524-16.496,205.518-31.558c-3.168-23.702-10.648-41.547-20.68-55.806L374.714,448.193z"/> </g> </g>
</svg>