<!DOCTYPE svg PUBLIC "-//W3C//DTD SVG 1.1//EN" "http://www.w3.org/Graphics/SVG/1.1/DTD/svg11.dtd">
<!-- Uploaded to: SVG Repo, www.svgrepo.com, Transformed by: SVG Repo Mixer Tools -->
<svg width="194px" height="194px" viewBox="-3.36 -3.36 30.72 30.72" fill="none" xmlns="http://www.w3.org/2000/svg" transform="rotate(0)" stroke="#49416D" stroke-width="0.12000000000000002">
<g id="SVGRepo_bgCarrier" stroke-width="0" transform="translate(0,0), scale(1)">
<path transform="translate(-3.36, -3.36), scale(0.96)" d="M16,31.621714061746996C18.462372505189418,31.79814434009271,20.627374384355154,30.12637100278683,22.776938852510643,28.912378171393925C24.87657560716102,27.726582627024033,27.10497078658197,26.59493594872493,28.44745797777439,24.591859885263904C29.78395721886068,22.597718223267183,30.533577874103127,20.11870483687087,30.269729678949396,17.73265887766359C30.01900523371215,15.465294308107756,27.75522446969797,13.979499510591376,27.03461065090471,11.815124182031003C26.27257504727176,9.526337848805058,27.684935588221393,6.444608641614078,25.95253884449307,4.765905969106047C24.243564173131983,3.1098994230026022,21.33961615133947,4.010950361893871,18.960005796190565,3.9907844064416604C17.000228410508914,3.9741763162262216,15.096544083936022,4.147130854417236,13.204416599411061,4.657872288408107C11.342497977877809,5.160459452599608,9.414137674726476,5.6579893290392995,7.985235491825231,6.953201034716173C6.561893228657011,8.243373016045915,6.084178275787754,10.197630770891406,5.207219496742029,11.906838259578421C4.228561194929216,13.814259837756113,2.649166579954623,15.500054723666803,2.5026378840873402,17.63887647638311C2.3488210025170657,19.884081009804113,3.0895724263510154,22.17693675874884,4.3771760450991035,24.022656117410136C5.662603898292427,25.865256618260016,7.8338580015816,26.747000859730857,9.71428354800964,27.976432084256345C11.77141893885969,29.321397051038282,13.548493676396244,31.44606235099724,16,31.621714061746996" fill="#A882DD" strokewidth="0"/>
</g>
<g id="SVGRepo_tracerCarrier" stroke-linecap="round" stroke-linejoin="round" stroke="#CCCCCC" stroke-width="0.096"/>
<g id="SVGRepo_iconCarrier"> <path d="M12.5535 2.49392C12.4114 2.33852 12.2106 2.25 12 2.25C11.7894 2.25 11.5886 2.33852 11.4465 2.49392L7.44648 6.86892C7.16698 7.17462 7.18822 7.64902 7.49392 7.92852C7.79963 8.20802 8.27402 8.18678 8.55352 7.88108L11.25 4.9318V16C11.25 16.4142 11.5858 16.75 12 16.75C12.4142 16.75 12.75 16.4142 12.75 16V4.9318L15.4465 7.88108C15.726 8.18678 16.2004 8.20802 16.5061 7.92852C16.8118 7.64902 16.833 7.17462 16.5535 6.86892L12.5535 2.49392Z" fill="#1C274C"/> <path d="M3.75 15C3.75 14.5858 3.41422 14.25 3 14.25C2.58579 14.25 2.25 14.5858 2.25 15V15.0549C2.24998 16.4225 2.24996 17.5248 2.36652 18.3918C2.48754 19.2919 2.74643 20.0497 3.34835 20.6516C3.95027 21.2536 4.70814 21.5125 5.60825 21.6335C6.47522 21.75 7.57754 21.75 8.94513 21.75H15.0549C16.4225 21.75 17.5248 21.75 18.3918 21.6335C19.2919 21.5125 20.0497 21.2536 20.6517 20.6516C21.2536 20.0497 21.5125 19.2919 21.6335 18.3918C21.75 17.5248 21.75 16.4225 21.75 15.0549V15C21.75 14.5858 21.4142 14.25 21 14.25C20.5858 14.25 20.25 14.5858 20.25 15C20.25 16.4354 20.2484 17.4365 20.1469 18.1919C20.0482 18.9257 19.8678 19.3142 19.591 19.591C19.3142 19.8678 18.9257 20.0482 18.1919 20.1469C17.4365 20.2484 16.4354 20.25 15 20.25H9C7.56459 20.25 6.56347 20.2484 5.80812 20.1469C5.07435 20.0482 4.68577 19.8678 4.40901 19.591C4.13225 19.3142 3.9518 18.9257 3.85315 18.1919C3.75159 17.4365 3.75 16.4354 3.75 15Z" fill="#1C274C"/> </g>
</svg>